<?xml version="1.0" encoding="UTF-8" standalone="no"?>
<!-- Created with Inkscape (http://www.inkscape.org/) -->

<svg
   width="512"
   height="512"
   viewBox="0 0 135.46666 135.46667"
   version="1.1"
   id="svg1"
   xmlns:xlink="http://www.w3.org/1999/xlink"
   xmlns="http://www.w3.org/2000/svg"
   xmlns:svg="http://www.w3.org/2000/svg">
  <defs
     id="defs1">
    <linearGradient
       id="linearGradient2">
      <stop
         style="stop-color:#00beff;stop-opacity:1;"
         offset="0.70620435"
         id="stop2" />
      <stop
         style="stop-color:#0f172a;stop-opacity:0;"
         offset="1"
         id="stop3" />
    </linearGradient>
    <radialGradient
       xlink:href="#linearGradient2"
       id="radialGradient3"
       cx="67.73333"
       cy="67.73333"
       fx="67.73333"
       fy="67.73333"
       r="67.733566"
       gradientUnits="userSpaceOnUse" />
  </defs>
  <g
     id="layer1">
    <path
       id="path1"
       style="fill:url(#radialGradient3);fill-opacity:1;fill-rule:evenodd;stroke:#000000;stroke-width:0.0366401;stroke-linecap:round;stroke-opacity:0;paint-order:markers fill stroke"
       d="M 67.733333 0.018086751 A 67.715012 67.715012 0 0 0 27.577645 13.422437 L 48.815108 13.422437 L 48.815108 48.889522 L 13.274642 48.889522 L 13.274642 27.775049 A 67.715012 67.715012 0 0 0 0.018086751 67.733333 A 67.715012 67.715012 0 0 0 13.274642 107.69162 L 13.274642 87.50577 L 48.815108 87.50577 L 48.815108 122.97286 L 28.817879 122.97286 A 67.715012 67.715012 0 0 0 67.733333 135.44858 A 67.715012 67.715012 0 0 0 106.86428 122.97286 L 87.357975 122.97286 L 87.357975 87.50577 L 122.89844 87.50577 L 122.89844 106.9697 A 67.715012 67.715012 0 0 0 135.44858 67.733333 A 67.715012 67.715012 0 0 0 122.89844 28.496969 L 122.89844 48.889522 L 87.357975 48.889522 L 87.357975 13.422437 L 108.17221 13.422437 A 67.715012 67.715012 0 0 0 67.733333 0.018086751 z M 50.316309 13.422437 L 85.856775 13.422437 L 85.856775 48.889522 L 50.316309 48.889522 L 50.316309 13.422437 z M 13.274642 50.464103 L 48.815108 50.464103 L 48.815108 85.931189 L 13.274642 85.931189 L 13.274642 50.464103 z M 50.316309 50.464103 L 85.856775 50.464103 L 85.856775 85.931189 L 50.316309 85.931189 L 50.316309 50.464103 z M 87.357975 50.464103 L 122.89844 50.464103 L 122.89844 85.931189 L 87.357975 85.931189 L 87.357975 50.464103 z M 50.316309 87.50577 L 85.856775 87.50577 L 85.856775 122.97286 L 50.316309 122.97286 L 50.316309 87.50577 z " />
  </g>
</svg>
